<svg xmlns="http://www.w3.org/2000/svg" width="1440" height="320" viewBox="0 0 1440 320" preserveAspectRatio="none">
  <!-- 第一层波浪 - 较暗 -->
  <path fill="#1db954" fill-opacity="0.2" d="M0,160L48,149.3C96,139,192,117,288,112C384,107,480,117,576,133.3C672,149,768,171,864,186.7C960,203,1056,213,1152,202.7C1248,192,1344,160,1392,144L1440,128L1440,320L1392,320C1344,320,1248,320,1152,320C1056,320,960,320,864,320C768,320,672,320,576,320C480,320,384,320,288,320C192,320,96,320,48,320L0,320Z"></path>
  
  <!-- 第二层波浪 - 半透明 -->
  <path fill="#ffffff" fill-opacity="0.3" d="M0,224L48,218.7C96,213,192,203,288,176C384,149,480,107,576,122.7C672,139,768,213,864,229.3C960,245,1056,203,1152,186.7C1248,171,1344,181,1392,186.7L1440,192L1440,320L1392,320C1344,320,1248,320,1152,320C1056,320,960,320,864,320C768,320,672,320,576,320C480,320,384,320,288,320C192,320,96,320,48,320L0,320Z"></path>
  
  <!-- 第三层波浪 - 最前面 -->
  <path fill="#ffffff" fill-opacity="0.15" d="M0,288L48,266.7C96,245,192,203,288,202.7C384,203,480,245,576,261.3C672,277,768,267,864,250.7C960,235,1056,213,1152,213.3C1248,213,1344,235,1392,245.3L1440,256L1440,320L1392,320C1344,320,1248,320,1152,320C1056,320,960,320,864,320C768,320,672,320,576,320C480,320,384,320,288,320C192,320,96,320,48,320L0,320Z"></path>
</svg>