<svg xmlns="http://www.w3.org/2000/svg" width="1440" height="320" viewBox="0 0 1440 320" preserveAspectRatio="none">
  <defs>
    <!-- 新增渐变定义 -->
    <linearGradient id="grad1" x1="0%" y1="0%" x2="100%" y2="100%">
      <stop offset="0%" style="stop-color:#1db954;stop-opacity:0.8" />
      <stop offset="100%" style="stop-color:#0f8643;stop-opacity:0.6" />
    </linearGradient>
    <linearGradient id="grad2" x1="100%" y1="0%" x2="0%" y2="100%">
      <stop offset="0%" style="stop-color:#8af3c7;stop-opacity:0.5" />
      <stop offset="100%" style="stop-color:#1db954;stop-opacity:0.3" />
    </linearGradient>
  </defs>
  <!-- 底层渐变 -->
  <path fill="url(#grad1)" d="M0,256L40,245.3C80,235,160,213,240,186.7C320,160,400,128,480,138.7C560,149,640,203,720,213.3C800,224,880,192,960,170.7C1040,149,1120,139,1200,160C1280,181,1360,235,1400,261.3L1440,288L1440,320L1400,320C1360,320,1280,320,1200,320C1120,320,1040,320,960,320C880,320,800,320,720,320C640,320,560,320,480,320C400,320,320,320,240,320C160,320,80,320,40,320L0,320Z"></path>
  <!-- 中间动态层 -->
  <path fill="url(#grad2)" d="M0,192L40,202.7C80,213,160,235,240,240C320,245,400,235,480,208C560,181,640,139,720,133.3C800,128,880,160,960,186.7C1040,213,1120,235,1200,218.7C1280,203,1360,149,1400,122.7L1440,96L1440,320L1400,320C1360,320,1280,320,1200,320C1120,320,1040,320,960,320C880,320,800,320,720,320C640,320,560,320,480,320C400,320,320,320,240,320C160,320,80,320,40,320L0,320Z" style="mix-blend-mode: screen"></path>
  <!-- 顶部细节层 -->
  <path fill="#e3fcef" fill-opacity="0.4" d="M0,128L40,149.3C80,171,160,213,240,208C320,203,400,149,480,133.3C560,117,640,139,720,160C800,181,880,203,960,197.3C1040,192,1120,160,1200,144C1280,128,1360,128,1400,128L1440,128L1440,320L1400,320C1360,320,1280,320,1200,320C1120,320,1040,320,960,320C880,320,800,320,720,320C640,320,560,320,480,320C400,320,320,320,240,320C160,320,80,320,40,320L0,320Z"></path>
  <!-- 动态圆点装饰 -->
  <g fill="#ffffff" opacity="0.15">
    <circle cx="120" cy="280" r="4"/>
    <circle cx="360" cy="300" r="3"/>
    <circle cx="580" cy="290" r="5"/>
    <circle cx="820" cy="310" r="4"/>
    <circle cx="1100" cy="295" r="3"/>
    <circle cx="1320" cy="305" r="4"/>
  </g>
</svg>