<svg xmlns="http://www.w3.org/2000/svg" width="1440" height="320" viewBox="0 0 1440 320" preserveAspectRatio="none">
  <defs>
    <!-- 新增多色渐变 -->
    <linearGradient id="grad1" x1="0%" y1="0%" x2="100%" y2="100%">
      <stop offset="0%" style="stop-color:#6B46C1;stop-opacity:0.8" /> <!-- 紫色 -->
      <stop offset="40%" style="stop-color:#4299E1;stop-opacity:0.7" /> <!-- 蓝色 -->
      <stop offset="100%" style="stop-color:#48BB78;stop-opacity:0.6" /> <!-- 绿色 -->
    </linearGradient>
    
    <linearGradient id="grad2" x1="100%" y1="0%" x2="0%" y2="100%">
      <stop offset="0%" style="stop-color:#F6AD55;stop-opacity:0.5" /> <!-- 橙色 -->
      <stop offset="60%" style="stop-color:#F56565;stop-opacity:0.4" /> <!-- 红色 -->
      <stop offset="100%" style="stop-color:#9F7AEA;stop-opacity:0.3" /> <!-- 紫色 -->
    </linearGradient>

    <!-- 新增彩虹渐变 -->
    <linearGradient id="grad3" x1="0%" y1="50%" x2="100%" y2="50%">
      <stop offset="0%" style="stop-color:#FF6B6B;stop-opacity:0.3"/>
      <stop offset="25%" style="stop-color:#FF922B;stop-opacity:0.3"/>
      <stop offset="50%" style="stop-color:#F9C74F;stop-opacity:0.3"/>
      <stop offset="75%" style="stop-color:#4D908E;stop-opacity:0.3"/>
      <stop offset="100%" style="stop-color:#277DA1;stop-opacity:0.3"/>
    </linearGradient>
  </defs>

  <!-- 底层光晕效果 -->
  <path fill="url(#grad1)" d="M0,256L40,245.3C80,235,160,213,240,186.7C320,160,400,128,480,138.7C560,149,640,203,720,213.3C800,224,880,192,960,170.7C1040,149,1120,139,1200,160C1280,181,1360,235,1400,261.3L1440,288L1440,320L1400,320C1360,320,1280,320,1200,320C1120,320,1040,320,960,320C880,320,800,320,720,320C640,320,560,320,480,320C400,320,320,320,240,320C160,320,80,320,40,320L0,320Z"></path>

  <!-- 新增彩虹渐变层 -->
  <path fill="url(#grad3)" d="M0,96L40,90.7C80,85,160,75,240,80C320,85,400,107,480,122.7C560,139,640,149,720,138.7C800,128,880,96,960,96C1040,96,1120,128,1200,154.7C1280,181,1360,203,1400,213.3L1440,224L1440,320L1400,320C1360,320,1280,320,1200,320C1120,320,1040,320,960,320C880,320,800,320,720,320C640,320,560,320,480,320C400,320,320,320,240,320C160,320,80,320,40,320L0,320Z" style="mix-blend-mode: overlay"></path>

  <!-- 中间动态层 -->
  <path fill="url(#grad2)" d="M0,192L40,202.7C80,213,160,235,240,240C320,245,400,235,480,208C560,181,640,139,720,133.3C800,128,880,160,960,186.7C1040,213,1120,235,1200,218.7C1280,203,1360,149,1400,122.7L1440,96L1440,320L1400,320C1360,320,1280,320,1200,320C1120,320,1040,320,960,320C880,320,800,320,720,320C640,320,560,320,480,320C400,320,320,320,240,320C160,320,80,320,40,320L0,320Z" style="mix-blend-mode: multiply"></path>

  <!-- 顶部光效层 -->
  <path fill="url(#grad3)" d="M0,64L40,58.7C80,53,160,43,240,48C320,53,400,75,480,80C560,85,640,75,720,64C800,53,880,43,960,48C1040,53,1120,75,1200,80C1280,85,1360,75,1400,69.3L1440,64L1440,320L1400,320C1360,320,1280,320,1200,320C1120,320,1040,320,960,320C880,320,800,320,720,320C640,320,560,320,480,320C400,320,320,320,240,320C160,320,80,320,40,320L0,320Z" style="mix-blend-mode: soft-light;opacity:0.6"></path>

  <!-- 动态粒子装饰升级 -->
  <g style="mix-blend-mode: screen">
    <circle cx="120" cy="280" r="4" fill="#FFD670"/>
    <circle cx="360" cy="300" r="3" fill="#FF70A6"/>
    <circle cx="580" cy="290" r="5" fill="#70D6FF"/>
    <circle cx="820" cy="310" r="4" fill="#7AFF87"/>
    <circle cx="1100" cy="295" r="3" fill="#FF9770"/>
    <circle cx="1320" cy="305" r="4" fill="#FF70A6"/>
    <!-- 新增流动粒子 -->
    <circle cx="200" cy="275" r="2" fill="#FFD670"/>
    <circle cx="500" cy="315" r="3" fill="#70D6FF"/>
    <circle cx="900" cy="285" r="4" fill="#7AFF87"/>
  </g>
</svg>